<svg width="584" height="584" xmlns="http://www.w3.org/2000/svg" xmlns:xlink="http://www.w3.org/1999/xlink" overflow="hidden"><defs><clipPath id="clip0"><rect x="348" y="68" width="584" height="584"/></clipPath></defs><g clip-path="url(#clip0)" transform="translate(-348 -68)"><path d="M688.69 445.161 591.363 445.161C581.288 445.172 573.123 453.336 573.113 463.411L573.113 512.077C573.123 522.152 581.288 530.316 591.363 530.327L688.69 530.327C698.764 530.316 706.929 522.152 706.94 512.077L706.94 463.411C706.929 453.336 698.764 445.172 688.69 445.161ZM694.773 512.077C694.769 515.435 692.048 518.156 688.69 518.161L591.363 518.161C588.005 518.156 585.283 515.435 585.279 512.077L585.279 463.411C585.283 460.053 588.005 457.332 591.363 457.327L688.69 457.327C692.048 457.332 694.769 460.053 694.773 463.411Z" fill="#0070C0" fill-rule="nonzero" fill-opacity="1"/><path d="M770.407 243.473C770.576 240.753 770.821 238.054 770.821 235.292 770.821 163.058 712.263 104.5 640.029 104.5 567.795 104.5 509.238 163.058 509.238 235.292 509.238 237.762 509.473 240.174 509.609 242.611L509.7 244.417C511.538 271.577 521.845 297.477 539.173 318.473 522.228 322.816 512.013 340.074 516.357 357.019 517.159 360.148 518.434 363.135 520.139 365.878 497.705 375.072 476.343 386.689 456.431 400.522 442.599 411.057 433.465 426.609 431.002 443.821L420.647 571.267 425.385 572.669C426.218 572.917 510.048 597.25 639.964 597.25 769.88 597.25 853.834 572.917 854.669 572.667L859.406 571.268 849.093 443.239C846.179 426.428 837.208 411.266 823.875 400.62 804.537 385.757 783.089 373.865 760.239 365.336 769.18 350.31 764.247 330.882 749.221 321.941 746.621 320.394 743.814 319.228 740.884 318.478 758.213 297.481 768.521 271.579 770.359 244.417ZM823.906 417.421 792.481 444.356 776.649 425.883 804.766 401.78C808.791 404.493 812.684 407.268 816.318 410.16 819.07 412.336 821.611 414.767 823.906 417.421ZM521.781 242.726C522.49 227.599 532.504 213.526 548.762 202.355L548.762 268.75C548.774 295.225 560.315 320.382 580.376 337.66 546.248 317.754 524.277 282.156 521.781 242.726ZM719.095 268.75C719.091 277.014 717.785 285.225 715.225 293.083L681.949 293.083C679.789 289.341 675.807 287.026 671.486 287L659.319 287C652.6 287 647.153 292.447 647.153 299.167 647.153 305.886 652.6 311.333 659.319 311.333L671.486 311.333C675.807 311.307 679.789 308.992 681.949 305.25L710.099 305.25C689.965 343.982 642.245 359.058 603.513 338.924 577.333 325.315 560.912 298.256 560.929 268.75L560.929 195.21C585.554 183.218 612.642 177.153 640.029 177.5 667.408 177.153 694.487 183.226 719.095 195.231ZM731.262 268.75 731.262 202.395C747.76 213.758 757.859 228.116 758.237 243.533 755.484 282.706 733.518 317.977 699.575 337.725 719.68 320.447 731.251 295.26 731.262 268.75ZM640.029 116.667C694.72 116.764 742.271 154.206 755.192 207.348 733.234 182.38 689.872 165.333 640.029 165.333 590.268 165.333 546.944 182.291 524.916 207.158 537.907 154.108 585.412 116.764 640.029 116.667ZM530.292 339.151C532.97 334.661 537.333 331.429 542.408 330.175 543.981 329.782 545.596 329.583 547.217 329.583 548.086 329.584 548.955 329.643 549.817 329.76 600.196 378.185 679.821 378.196 730.213 329.786 740.992 328.31 750.925 335.852 752.401 346.629 753.471 354.441 749.779 362.138 743.018 366.193 717.38 381.586 679.842 390.417 640.029 390.417 600.217 390.417 562.681 381.586 537.038 366.19 527.72 360.579 524.702 348.483 530.292 339.151ZM463.562 410.375C467.616 407.553 471.784 404.954 475.943 402.335L503.41 425.878 487.578 444.353 456.071 417.348C458.323 414.774 460.833 412.437 463.562 410.375ZM767.571 576.904 761.655 529.573C761.195 526.245 758.125 523.919 754.797 524.378 751.529 524.829 749.215 527.803 749.583 531.082L755.498 578.402C717.151 582.887 678.573 585.119 639.964 585.083 601.399 585.118 562.865 582.888 524.56 578.405L530.476 531.082C530.947 527.755 528.631 524.676 525.304 524.206 521.978 523.735 518.9 526.051 518.429 529.378 518.42 529.443 518.412 529.508 518.405 529.573L512.488 576.906C485.923 573.59 459.576 568.706 433.587 562.283L443.077 445.262C444.082 439.021 446.135 432.995 449.147 427.437L484.279 457.55C485.382 458.495 486.787 459.014 488.239 459.015 488.394 459.015 488.551 459.009 488.705 458.997 490.314 458.873 491.808 458.116 492.858 456.89L516.609 429.177C518.795 426.626 518.5 422.786 515.949 420.6L486.935 395.729C500.494 387.93 514.608 381.139 529.162 375.41 529.721 375.796 530.19 376.262 530.78 376.618 558.255 393.12 598.076 402.583 640.029 402.583 681.983 402.583 721.804 393.12 749.28 376.622 750.056 376.156 750.687 375.552 751.409 375.033 766.157 380.439 780.409 387.112 794.007 394.975L764.111 420.602C761.56 422.788 761.265 426.628 763.452 429.179L787.203 456.892C788.253 458.117 789.747 458.874 791.355 458.998 791.51 459.011 791.667 459.017 791.822 459.017 793.274 459.016 794.678 458.496 795.781 457.552L830.846 427.496C833.824 432.896 835.917 438.739 837.043 444.802L846.476 562.283C820.485 568.707 794.138 573.589 767.571 576.904Z" fill="#0070C0" fill-rule="nonzero" fill-opacity="1"/><path d="M456.358 148.183C457.712 149.846 459.156 151.435 460.683 152.942 459.156 154.45 457.712 156.038 456.358 157.702 455.002 156.038 453.558 154.45 452.031 152.942 453.558 151.435 455.002 149.846 456.358 148.183ZM456.358 122.743C452.593 136.007 443.302 147.01 430.855 152.942 443.303 158.874 452.595 169.877 456.36 183.142 460.125 169.877 469.417 158.874 481.865 152.942 469.416 147.011 460.123 136.008 456.358 122.743Z" fill="#0070C0" fill-rule="nonzero" fill-opacity="1"/><path d="M391.784 312.433C393.139 314.096 394.584 315.685 396.111 317.192 394.583 318.699 393.139 320.288 391.784 321.952 390.429 320.288 388.985 318.7 387.458 317.192 388.985 315.685 390.429 314.096 391.784 312.433ZM391.784 286.993C388.019 300.258 378.727 311.26 366.279 317.192 378.727 323.124 388.019 334.127 391.784 347.392 395.549 334.127 404.841 323.124 417.289 317.192 404.841 311.26 395.549 300.258 391.784 286.993Z" fill="#0070C0" fill-rule="nonzero" fill-opacity="1"/><path d="M857.858 282.233C859.212 283.897 860.656 285.486 862.184 286.993 860.656 288.5 859.212 290.089 857.858 291.752 856.503 290.089 855.059 288.5 853.532 286.993 855.059 285.485 856.503 283.897 857.858 282.233ZM857.858 256.793C854.093 270.058 844.802 281.06 832.355 286.993 844.803 292.925 854.095 303.927 857.86 317.192 861.625 303.927 870.917 292.925 883.365 286.993 870.916 281.061 861.623 270.059 857.858 256.793Z" fill="#0070C0" fill-rule="nonzero" fill-opacity="1"/></g></svg>